<svg xmlns="http://www.w3.org/2000/svg" width="24" height="24" viewBox="0 0 24 24"><defs><style>.cls-1,.cls-2,.cls-3{fill:#fff}</style></defs><g data-name="Product Icons"><path d="M6,8h4V4H3A1,1,0,0,0,2,5V21a1,1,0,0,0,.28.68L6,18Z" class="cls-1"/><path d="M16,18l3.72,3.72A1,1,0,0,0,20,21V14H16Z" class="cls-2"/><path d="M21.71,2.28,18,6h0v4h4V3A1,1,0,0,0,21.71,2.28Z" class="cls-3"/><path d="M18,6l3.72-3.72A1,1,0,0,0,21,2H14V6Z" class="cls-1"/><polygon points="2 22 6 18 16 18 20 22 2 22" class="cls-3"/></g></svg>