<svg xmlns="http://www.w3.org/2000/svg" xmlns:xlink="http://www.w3.org/1999/xlink" id="Layer_1" width="24" height="24" x="0" y="0" baseProfile="tiny" overflow="visible" version="1.1" viewBox="0 0 24 24" xml:space="preserve"><g><rect width="24" height="24" y="0" fill="none"/><g transform="translate(0.000000, 1.000000)"><polygon fill="#5C85DE" fill-rule="evenodd" points="13.6 3.2 10.4 3.2 3 10 3 22.2 9 22.2 9 14 15 14 15 22.2 21 22.2 21 10"/><polygon fill="#85A4E6" fill-rule="evenodd" points="12 3.2 10.4 3.2 3 10 3 22.2 9 22.2 9 14 12 14"/><polygon fill="#3367D6" fill-rule="evenodd" points="13.1 3.7 3 14.8 3 11 12.5 2.6"/><polygon fill="#85A4E6" fill-rule="evenodd" points="12 -.1 0 11.9 1.8 13.7 12 3.5 22.2 13.7 24 11.9"/></g></g></svg>