<svg xmlns="http://www.w3.org/2000/svg" width="24" height="24" viewBox="0 0 24 24"><defs><style>.cls-1,.cls-2{fill:#fff}.cls-3{fill:none}</style></defs><g data-name="Product Icons"><polygon id="Fill-11" points="2 8 8 8 8 2 2 2 2 8" class="cls-1"/><rect width="13" height="2" x="7" y="4" class="cls-2"/><rect width="24" height="24" class="cls-3"/><polygon id="Fill-4" points="15 13 3 13 3 10 15 10 15 13" class="cls-1"/><polygon id="Fill-4-Copy-2" points="13 20 3 20 3 16 13 16 13 20" class="cls-1"/><polygon id="Fill-15" points="5 8 8 8 8 2 5 2 5 8" class="cls-2"/><polygon id="Fill-11-2" points="16 22 22 22 22 16 16 16 16 22" class="cls-1" data-name="Fill-11"/><polygon id="Fill-15-2" points="19 22 22 22 22 16 19 16 19 22" class="cls-2" data-name="Fill-15"/><rect width="2" height="12" x="18" y="4" class="cls-2"/></g></svg>