<svg xmlns="http://www.w3.org/2000/svg" width="24" height="24" viewBox="0 0 24 24"><defs><style>.cls-1,.cls-2,.cls-3{fill:#fff}</style></defs><g data-name="Product Icons"><g><circle id="Oval" cx="12" cy="12" r="1.6" class="cls-1"/><polygon points="7.58 9.2 13.95 9.2 14.69 8.5 13.95 7.8 7.58 7.8 7.58 9.2" class="cls-2"/><circle cx="6.8" cy="8.5" r="1.23" class="cls-3"/><circle cx="17.2" cy="8.5" r="1.6" class="cls-1"/><polygon points="9.36 15.5 10.1 16.2 16.38 16.2 16.38 14.8 10.1 14.8 9.36 15.5" class="cls-2"/><circle cx="6.8" cy="15.5" r="1.6" class="cls-1"/><circle cx="17.2" cy="15.5" r="1.23" class="cls-3"/><polygon points="4.18 5 16.86 5 17.6 4.3 16.86 3.6 4.18 3.6 4.18 5" class="cls-2"/><circle cx="3.6" cy="4.3" r="1.23" class="cls-3"/><circle cx="20.4" cy="4.3" r="1.6" class="cls-1"/><polygon points="6.4 19.7 7.14 20.4 19.84 20.4 19.84 19 7.14 19 6.4 19.7" class="cls-2"/><circle cx="3.6" cy="19.7" r="1.6" class="cls-1"/><circle cx="20.4" cy="19.7" r="1.23" class="cls-3"/></g></g></svg>