<svg xmlns="http://www.w3.org/2000/svg" width="24" height="24" viewBox="0 0 24 24"><defs><style>.cls-1,.cls-2{fill-rule:evenodd;fill:#fff}</style></defs><g data-name="Product Icons"><g><path d="M3.33,7,12,2l8.66,5v9.72L17.33,14H6.67L3.33,16.67ZM16,8.67a4,4,0,1,0-4,4A4,4,0,0,0,16,8.67Zm-1.33,0A2.67,2.67,0,1,1,12,6,2.67,2.67,0,0,1,14.67,8.67Z" class="cls-1"/><path d="M12,12.67a4,4,0,0,0,0-8V2l8.66,5v9.72L17.33,14H12Zm2.67-4A2.67,2.67,0,0,1,12,11.31V6A2.67,2.67,0,0,1,14.67,8.66Z" class="cls-2"/><polygon points="4 18 12 22 20 18 16.67 15.33 7.33 15.33 4 18" class="cls-1"/><polygon points="12 22 20 18 16.67 15.33 12 15.33 12 22" class="cls-2"/></g></g></svg>