<svg xmlns="http://www.w3.org/2000/svg" id="b716ac5b-e950-447e-8b9b-c943a9f31cb0" width="24" height="24" data-name="Artwork" viewBox="0 0 24 24"><path fill="#4285f4" d="M16.791,6.375a.841.841,0,0,1,.834.846V17.64a.685.685,0,0,1-.75.735H4.688L2.25,20.812V7.221a.841.841,0,0,1,.834-.846Z"/><rect width="2.813" height="4.875" x="12.375" y="11.438" fill="#669df6"/><rect width="2.813" height="7.688" x="8.625" y="8.625" fill="#aecbfa"/><rect width="2.813" height="6.188" x="4.875" y="10.125" fill="#fff"/><path fill="#669df6" d="M20.916,3.188a.839.839,0,0,1,.833.8V17.625l-2.25-2.25h-.75v-9.3a.823.823,0,0,0-.824-.821H6.375V4.033a.841.841,0,0,1,.8-.845H20.916Z"/></svg>