<svg xmlns="http://www.w3.org/2000/svg" width="90" height="90" fill="none" viewBox="0 0 90 90"><rect width="19.258" height="19.258" fill="#fff" rx="2" transform="matrix(-0.708871 -0.705338 0.708871 -0.705338 22.1511 89)"/><rect width="19.258" height="19.258" fill="#fff" rx="2" transform="matrix(-0.708871 -0.705338 0.708871 -0.705338 67.8489 89)"/><rect width="19.258" height="19.258" fill="#fff" rx="2" transform="matrix(-0.708871 -0.705338 0.708871 -0.705338 44.0349 28.167)"/><line x1="22.151" x2="67.843" y1="75.415" y2="75.415" stroke="#fff" stroke-width="3.845"/><line x1="44.686" x2="44.686" y1="77.337" y2="54.925" stroke="#fff" stroke-width="3.845"/><line x1="44.686" x2="44.686" y1="42.118" y2="16.504" stroke="#fff" stroke-width="3.845"/><path stroke="#fff" stroke-width="2.373" d="M45.0016 41.3841C48.7947 41.3841 51.8594 44.442 51.8594 48.2018C51.8594 51.9615 48.7947 55.0195 45.0016 55.0195C41.2086 55.0195 38.1439 51.9615 38.1439 48.2018C38.1439 44.442 41.2086 41.3841 45.0016 41.3841Z"/></svg>