<svg xmlns="http://www.w3.org/2000/svg" xmlns:xlink="http://www.w3.org/1999/xlink" width="24" height="24" viewBox="0 0 24 24"><defs><style>.cls-1,.cls-2,.cls-8{fill:#fff}.cls-1,.cls-3,.cls-5{clip-rule:evenodd}.cls-11,.cls-14,.cls-3,.cls-4,.cls-5,.cls-6{fill:#fff}.cls-7{fill:none}.cls-11,.cls-14,.cls-8{fill-rule:evenodd}.cls-9{clip-path:url(#clip-path)}.cls-10{clip-path:url(#clip-path-2)}.cls-12{clip-path:url(#clip-path-3)}.cls-13{clip-path:url(#clip-path-4)}.cls-15{clip-path:url(#clip-path-5)}.cls-16{clip-path:url(#clip-path-6)}.cls-17{clip-path:url(#clip-path-7)}.cls-18{clip-path:url(#clip-path-9)}</style><clipPath id="clip-path"><path d="M18,11v2h3a1,1,0,0,0,1-1h0a1,1,0,0,0-1-1Z" class="cls-1"/></clipPath><clipPath id="clip-path-2"><rect width="24" height="24" class="cls-2"/></clipPath><clipPath id="clip-path-3"><path d="M2,8V9h9.46a1,1,0,0,1,.84.45l1.33,2a1,1,0,0,1,0,1.11l-1.33,2a1,1,0,0,1-.84.45H2v1a1,1,0,0,0,1,1h9.46a1,1,0,0,0,.84-.45L15,14h2a1,1,0,0,0,1-1V11a1,1,0,0,0-1-1H15L13.3,7.45A1,1,0,0,0,12.46,7H3A1,1,0,0,0,2,8Z" class="cls-3"/></clipPath><clipPath id="clip-path-4"><rect width="24" height="24" class="cls-4"/></clipPath><clipPath id="clip-path-5"><path d="M15,18H11.54a1,1,0,0,1-.84-.45L8,13.45A1,1,0,0,0,7.13,13H2v2H4V14H5.46a1,1,0,0,1,.84.45l3.4,5.1a1,1,0,0,0,.84.45H16a1,1,0,0,0,1-1V17h4a1,1,0,0,0,1-1h0a1,1,0,0,0-1-1H16a1,1,0,0,0-1,1Z" class="cls-5"/></clipPath><clipPath id="clip-path-6"><rect width="24" height="24" class="cls-6"/></clipPath><clipPath id="clip-path-7"><path d="M17,7V5a1,1,0,0,0-1-1H10.54a1,1,0,0,0-.84.45L6.3,9.55a1,1,0,0,1-.84.45H4V9H2v2H7.13A1,1,0,0,0,8,10.55l2.74-4.1A1,1,0,0,1,11.54,6H15V8a1,1,0,0,0,1,1h5a1,1,0,0,0,1-1h0a1,1,0,0,0-1-1Z" class="cls-5"/></clipPath><clipPath id="clip-path-9"><circle cx="10.5" cy="12" r="1.25" class="cls-2"/></clipPath></defs><g data-name="Product Icons"><g data-name="colored-32/cloud-iot-edge"><g><rect id="Rectangle" width="24" height="24" class="cls-7"/></g></g><path d="M18,11v2h3a1,1,0,0,0,1-1h0a1,1,0,0,0-1-1Z" class="cls-8"/><g class="cls-9"><rect width="24" height="24" class="cls-2"/><g class="cls-10"><rect width="13" height="12" x="14" y="6" class="cls-2"/></g></g><path d="M2,8V9h9.46a1,1,0,0,1,.84.45l1.33,2a1,1,0,0,1,0,1.11l-1.33,2a1,1,0,0,1-.84.45H2v1a1,1,0,0,0,1,1h9.46a1,1,0,0,0,.84-.45L15,14h2a1,1,0,0,0,1-1V11a1,1,0,0,0-1-1H15L13.3,7.45A1,1,0,0,0,12.46,7H3A1,1,0,0,0,2,8Z" class="cls-11"/><g class="cls-12"><rect width="24" height="24" class="cls-4"/><g class="cls-13"><rect width="27" height="20" x="-3" y="2" class="cls-4"/></g></g><path d="M15,18H11.54a1,1,0,0,1-.84-.45L8,13.45A1,1,0,0,0,7.13,13H2v2H4V14H5.46a1,1,0,0,1,.84.45l3.4,5.1a1,1,0,0,0,.84.45H16a1,1,0,0,0,1-1V17h4a1,1,0,0,0,1-1h0a1,1,0,0,0-1-1H16a1,1,0,0,0-1,1Z" class="cls-14"/><g class="cls-15"><rect width="24" height="24" class="cls-6"/><g class="cls-16"><rect width="30" height="17" x="-3" y="8" class="cls-6"/></g></g><path d="M17,7V5a1,1,0,0,0-1-1H10.54a1,1,0,0,0-.84.45L6.3,9.55a1,1,0,0,1-.84.45H4V9H2v2H7.13A1,1,0,0,0,8,10.55l2.74-4.1A1,1,0,0,1,11.54,6H15V8a1,1,0,0,0,1,1h5a1,1,0,0,0,1-1h0a1,1,0,0,0-1-1Z" class="cls-14"/><g class="cls-17"><rect width="24" height="24" class="cls-6"/><g class="cls-16"><rect width="30" height="17" x="-3" y="-1" class="cls-6"/></g></g><circle cx="10.5" cy="12" r="1.25" class="cls-2"/><g class="cls-18"><rect width="24" height="24" class="cls-2"/><g class="cls-10"><rect width="12.5" height="12.5" x="4.25" y="5.75" class="cls-2"/></g></g><rect width="6.52" height="2" x="2" y="18" class="cls-2" rx=".97"/><rect width="6.52" height="2" x="2" y="4" class="cls-2" rx=".97"/></g></svg>