<svg xmlns="http://www.w3.org/2000/svg" xmlns:svg="http://www.w3.org/2000/svg" xmlns:xlink="http://www.w3.org/1999/xlink" id="svg29" width="2155" height="2155" version="1.1" viewBox="0 0 2155 2155"><metadata id="metadata33"/><title id="title2">icon</title><desc id="desc4">Created with Sketch.</desc><defs id="defs8"><polygon id="path-1" points="736.511 1260.074 .216 834.666 .216 .875 736.511 431.494"/><polygon id="path-3" points="735.083 .098 1470.324 430.849 735.083 861.6 .625 431.276"/><mask id="mask-2" fill="#fff"><use id="use10" xlink:href="#path-1"/></mask><mask id="mask-4" fill="#fff"><use id="use16" xlink:href="#path-3"/></mask></defs><g id="icon" fill="none" fill-rule="evenodd" stroke="none" stroke-width="1"><g id="Cube-Main" transform="translate(1082.718465, 1066.562500) scale(-1, -1) translate(-1082.718465, -1066.562500) translate(346.718465, 220.562500)"><polygon id="Path-6" fill="#3e446f" fill-rule="nonzero" points="-11.705 256.219 -11.705 704.834 -.406 709.678 115.399 781.086 115.399 896.483 115.399 938.336 252.854 1000.676 252.854 704.834 113.54 617.864 113.54 485.942 375.115 640.916 375.115 1067.075 754.408 1286.158 754.408 416.344 -4.543 -18.666 -4.543 131.848 -.406 139.543 614.492 501.854 614.492 1040.106 502.223 976.01 502.223 562" mask="url(#mask-2)" transform="translate(733.1969,0.031032)" style="fill:#fff;fill-opacity:1"/><polygon id="Path-4" fill="#3e446f" fill-rule="nonzero" points=".534 431.188 131.842 353.501 735.049 706.605 1353.265 345.783 997.751 141.303 986.939 147.442 735.3 286.668 598 202.891 478.898 272.332 735.3 419.596 985.939 278.288 1123.05 359.438 736.3 578.135 235.242 290.164 630.197 60.049 737.3 126.559 900.712 38.422 1510.464 380.139 1469.511 430.611 735.3 861.524" mask="url(#mask-4)" transform="translate(0.168183,829.29256)" style="fill:#fff;fill-opacity:1"/><polygon id="Path-2" fill="#524886" points="505.511 532.668 505.511 671.395 239.343 821.285 239.343 1120.148 372.82 1042.082 372.82 897.035 625.316 750.742 625.316 319.703 1.13 677.331 .718 1259.805 131.652 1183.034 131.652 744.348" transform="translate(0,1)" style="fill-rule:nonzero;fill:#fff;fill-opacity:1"/><polygon id="Path-7" fill="#524886" points=".633 565.779 .006 433.4 734.041 .063 734.041 138.318" transform="translate(0,1)" style="fill-rule:nonzero;fill:#fff;fill-opacity:1"/></g></g></svg>