<svg xmlns="http://www.w3.org/2000/svg" width="24" height="24" viewBox="0 0 24 24"><defs><style>.cls-1{fill:#4285f4}.cls-2{fill:#669df6}</style></defs><g data-name="Product Icons"><rect width="1.62" height="10.27" x="11.19" y="6.86" class="cls-1"/><rect width="2.7" height="1.62" x="2" y="11.19" class="cls-2"/><rect width="4.86" height="6.49" x="4.43" y="8.76" class="cls-1" rx=".24"/><rect width="1.62" height="10.27" x="11.19" y="6.86" class="cls-2"/><rect width="2.7" height="1.62" x="19.3" y="11.19" class="cls-2"/><path d="M6.59,17.14v1.33a.29.29,0,0,0,.29.29H17.12a.29.29,0,0,0,.29-.29h0V17.14Z" class="cls-2"/><path d="M17.12,5.24H6.88a.29.29,0,0,0-.29.29h0V6.86H17.41V5.53a.29.29,0,0,0-.29-.29Z" class="cls-2"/><rect width="4.86" height="6.49" x="14.7" y="8.76" class="cls-1" rx=".24"/></g></svg>