<svg xmlns="http://www.w3.org/2000/svg" width="24" height="24" viewBox="0 0 24 24"><defs><style>.cls-1{fill:none}.cls-2,.cls-3,.cls-4{fill:#fff}</style></defs><g data-name="Product Icons"><g data-name="colored-32/load-balancing"><rect width="24" height="24" class="cls-1"/><g><rect width="2" height="4" x="18" y="12" class="cls-2"/><rect width="2" height="4" x="11" y="12" class="cls-2"/><rect width="2" height="4" x="4" y="12" class="cls-2"/><polygon id="Fill-2" points="13 11 11 11 11 7 13 7 13 11" class="cls-3"/><rect width="16" height="2" x="4" y="11" class="cls-2"/><rect width="12" height="5" x="6" y="2" class="cls-4"/><rect width="6" height="5" x="12" y="2" class="cls-2"/><rect width="6" height="6" x="16" y="16" class="cls-4"/><rect width="6" height="6" x="2" y="16" class="cls-4"/><rect width="3" height="6" x="5" y="16" class="cls-2"/><rect width="6" height="6" x="9" y="16" class="cls-4"/><rect width="3" height="6" x="12" y="16" class="cls-2"/><rect width="3" height="6" x="19" y="16" class="cls-2"/></g></g></g></svg>