<svg xmlns="http://www.w3.org/2000/svg" xmlns:xlink="http://www.w3.org/1999/xlink" id="Layer_1" data-name="Layer 1" viewBox="0 0 900 900"><defs><style>.cls-1{fill:none}.cls-2{clip-path:url(#clip-path)}.cls-3{fill:#f7d186}.cls-4{clip-path:url(#clip-path-2)}.cls-5{isolation:isolate}.cls-6{clip-path:url(#clip-path-3)}.cls-7{clip-path:url(#clip-path-4)}.cls-8{clip-path:url(#clip-path-5)}.cls-9{fill:#ffcd3c}.cls-10{clip-path:url(#clip-path-7)}.cls-11{clip-path:url(#clip-path-8)}.cls-12{fill:#f3807b}.cls-13{clip-path:url(#clip-path-11)}.cls-14{clip-path:url(#clip-path-12)}.cls-15{fill:#35d0ba}.cls-16{clip-path:url(#clip-path-14)}.cls-17{fill:#d8ae64}</style><clipPath id="clip-path"><path d="M447.73,309.78a46.75981,46.75981,0,0,0-46.76,46.76V796.58a46.76,46.76,0,0,0,93.52,0V356.55a46.75555,46.75555,0,0,0-46.76-46.77" class="cls-1"/></clipPath><clipPath id="clip-path-2"><path d="M263.62,234.54q-.195,4.305-.2,8.68c0,3.19.07,6.35.24,9.5-.07,1.55-.24,3.08-.24,4.66V563.56c0,58.55,47.91,106.46,106.46,106.46H530.1c58.56,0,106.46-47.91,106.46-106.46V257.37c0-1.78-.18-3.51-.28-5.26.14-2.95.22-5.92.22-8.89,0-2.92-.07-5.8-.2-8.68C631.8,135.53,550.1,56.66,449.98,56.66,349.85,56.66,268.14,135.53,263.62,234.54Z" class="cls-1"/></clipPath><clipPath id="clip-path-3"><rect width="606.11" height="606.11" x="142.32" y="97.05" class="cls-1"/></clipPath><clipPath id="clip-path-4"><rect width="654.374" height="195.518" x="121.452" y="305.691" class="cls-1" transform="translate(-153.87924 435.4032) rotate(-45)"/></clipPath><clipPath id="clip-path-5"><rect width="382.11" height="619.29" x="260.91" y="50.93" class="cls-1"/></clipPath><clipPath id="clip-path-7"><rect width="639.05" height="639.05" x="-22.38" y="-67.66" class="cls-1"/></clipPath><clipPath id="clip-path-8"><rect width="654.384" height="241.178" x="-32.95" y="128.384" class="cls-1" transform="translate(-89.86928 280.98264) rotate(-45)"/></clipPath><clipPath id="clip-path-11"><rect width="606.11" height="606.11" x="280.67" y="235.4" class="cls-1"/></clipPath><clipPath id="clip-path-12"><rect width="654.392" height="193.818" x="258.779" y="443.791" class="cls-1" transform="translate(-210.70418 572.72293) rotate(-45.00062)"/></clipPath><clipPath id="clip-path-14"><polygon points="412.96 670.01 494.5 752.9 494.5 670.01 412.96 670.01" class="cls-1"/></clipPath></defs><g class="cls-2"><rect width="159.41" height="599.44" x="368.03" y="276.84" class="cls-3"/></g><g class="cls-4"><g class="cls-5"><g class="cls-6"><g class="cls-7"><g class="cls-8"><rect width="665.66" height="665.66" x="115.65" y="70.37" class="cls-9"/></g></g></g></g></g><g class="cls-4"><g class="cls-5"><g class="cls-10"><g class="cls-11"><g class="cls-8"><rect width="699.14" height="699.14" x="-55.33" y="-100.6" class="cls-12"/></g></g></g></g></g><g class="cls-4"><g class="cls-5"><g class="cls-13"><g class="cls-14"><g class="cls-8"><rect width="665.66" height="665.66" x="253.14" y="207.87" class="cls-15"/></g></g></g></g></g><g class="cls-16"><rect width="147.03" height="147.67" x="380.69" y="636.91" class="cls-17"/></g></svg>