<svg xmlns="http://www.w3.org/2000/svg" xmlns:xlink="http://www.w3.org/1999/xlink" id="Layer_1" width="20" height="19.84" x="0" style="enable-background:new 0 0 50 49.6" y="0" version="1.1" viewBox="0 0 20 19.84" xml:space="preserve"><style type="text/css">.st0{fill:none}.st1{fill:#654ff0}</style><path d="M0 0" class="st0"/><path d="M12.28 0v0.12C12.28 1.36 11.24 2.4 10 2.4c-1.28 0 -2.28 -1 -2.28 -2.28V0H0v19.84h20V0H12.28zm-2.72 17.72 -0.96 -4.76h-0.04l-1.04 4.76h-1.32l-1.52 -7H6l0.92 4.76 1.08 -4.8h1.2l1 4.84 1.04 -4.84h1.28l-1.68 7 -1.28 0.04zm7.28 0L16.4 16.16h-2.4l-0.36 1.56h-1.32l1.72 -7h2.08l2.08 7h-1.36z" class="st1"/><path d="m14.28 15 0.56 -2.6h0.56l0.68 2.6" class="st1"/></svg>