<svg xmlns="http://www.w3.org/2000/svg" xmlns:xlink="http://www.w3.org/1999/xlink" id="图层_1" data-name="图层 1" viewBox="0 0 916.9 916.9"><defs><style>.cls-1{fill:url(#未命名的渐变_12)}.cls-2{fill:url(#未命名的渐变_12-2)}.cls-3{fill:url(#未命名的渐变_12-3)}.cls-4{fill:url(#未命名的渐变_21)}.cls-5{fill:url(#未命名的渐变_21-2)}.cls-6{fill:url(#未命名的渐变_12-4)}.cls-7{fill:url(#未命名的渐变_12-5)}.cls-8{fill:url(#未命名的渐变_12-6)}.cls-9{fill:url(#未命名的渐变_12-7)}.cls-10{fill:url(#未命名的渐变_12-8)}.cls-11{fill:url(#未命名的渐变_12-9)}.cls-12{fill:url(#未命名的渐变_12-10)}.cls-13{fill:url(#未命名的渐变_12-11)}.cls-14{fill:url(#未命名的渐变_12-12)}.cls-15{fill:url(#未命名的渐变_12-13)}.cls-16{fill:url(#未命名的渐变_12-14)}.cls-17{fill:url(#未命名的渐变_12-15)}.cls-18{fill:url(#未命名的渐变_12-16)}.cls-19{fill:url(#未命名的渐变_12-17)}.cls-20{fill:url(#未命名的渐变_12-18)}.cls-21{fill:url(#未命名的渐变_12-19)}.cls-22{fill:url(#未命名的渐变_12-20)}.cls-23{fill:url(#未命名的渐变_12-21)}.cls-24{fill:url(#未命名的渐变_12-22)}.cls-25{fill:url(#未命名的渐变_12-23)}.cls-26{fill:url(#未命名的渐变_12-24)}.cls-27{fill:url(#未命名的渐变_12-25)}.cls-28{fill:url(#未命名的渐变_12-26)}.cls-29{fill:url(#未命名的渐变_12-27)}.cls-30{fill:url(#未命名的渐变_12-28)}.cls-31{fill:url(#未命名的渐变_12-29)}.cls-32{fill:url(#未命名的渐变_12-30)}.cls-33{fill:url(#未命名的渐变_12-31)}.cls-34{fill:url(#未命名的渐变_12-32)}.cls-35{fill:url(#未命名的渐变_12-33)}.cls-36{fill:url(#未命名的渐变_12-34)}.cls-37{fill:url(#未命名的渐变_12-35)}</style><linearGradient id="未命名的渐变_12" x1="205.61" x2="706.67" y1="491.18" y2="491.18" gradientUnits="userSpaceOnUse"><stop offset="0" stop-color="#48abf9"/><stop offset="1" stop-color="#0084fe"/></linearGradient><linearGradient id="未命名的渐变_12-2" x1="458.59" x2="627.21" y1="337.06" y2="337.06" xlink:href="#未命名的渐变_12"/><linearGradient id="未命名的渐变_12-3" x1="293.25" x2="421.63" y1="350.85" y2="350.85" xlink:href="#未命名的渐变_12"/><linearGradient id="未命名的渐变_21" x1="142.63" x2="430.46" y1="500.22" y2="500.22" gradientUnits="userSpaceOnUse"><stop offset="0" stop-color="#0054d4"/><stop offset="1" stop-color="#0069e7"/></linearGradient><linearGradient id="未命名的渐变_21-2" x1="427.78" x2="769.64" y1="421.29" y2="421.29" xlink:href="#未命名的渐变_21"/><linearGradient id="未命名的渐变_12-4" x1="466.91" x2="495.53" y1="620.24" y2="620.24" xlink:href="#未命名的渐变_12"/><linearGradient id="未命名的渐变_12-5" x1="466.91" x2="495.53" y1="690.71" y2="690.71" xlink:href="#未命名的渐变_12"/><linearGradient id="未命名的渐变_12-6" x1="466.91" x2="495.77" y1="761.19" y2="761.19" xlink:href="#未命名的渐变_12"/><linearGradient id="未命名的渐变_12-7" x1="516.93" x2="646.63" y1="761.31" y2="761.31" xlink:href="#未命名的渐变_12"/><linearGradient id="未命名的渐变_12-8" x1="667.79" x2="696.65" y1="761.31" y2="761.31" xlink:href="#未命名的渐变_12"/><linearGradient id="未命名的渐变_12-9" x1="574.8" x2="603.43" y1="615.33" y2="615.33" xlink:href="#未命名的渐变_12"/><linearGradient id="未命名的渐变_12-10" x1="574.8" x2="603.67" y1="678.51" y2="678.51" xlink:href="#未命名的渐变_12"/><linearGradient id="未命名的渐变_12-11" x1="762.18" x2="791.27" y1="678.63" y2="678.63" xlink:href="#未命名的渐变_12"/><linearGradient id="未命名的渐变_12-12" x1="805.86" x2="834.95" y1="678.51" y2="678.51" xlink:href="#未命名的渐变_12"/><linearGradient id="未命名的渐变_12-13" x1="715.28" x2="744.37" y1="678.63" y2="678.63" xlink:href="#未命名的渐变_12"/><linearGradient id="未命名的渐变_12-14" x1="668.38" x2="697.47" y1="678.63" y2="678.63" xlink:href="#未命名的渐变_12"/><linearGradient id="未命名的渐变_12-15" x1="621.47" x2="650.57" y1="678.63" y2="678.63" xlink:href="#未命名的渐变_12"/><linearGradient id="未命名的渐变_12-16" x1="709.41" x2="767.87" y1="761.31" y2="761.31" xlink:href="#未命名的渐变_12"/><linearGradient id="未命名的渐变_12-17" x1="849.41" x2="907.88" y1="678.63" y2="678.63" xlink:href="#未命名的渐变_12"/><linearGradient id="未命名的渐变_12-18" x1="375" x2="403.63" y1="280.85" y2="280.85" xlink:href="#未命名的渐变_12"/><linearGradient id="未命名的渐变_12-19" x1="375" x2="403.63" y1="236.62" y2="236.62" xlink:href="#未命名的渐变_12"/><linearGradient id="未命名的渐变_12-20" x1="374.76" x2="403.63" y1="192.38" y2="192.38" xlink:href="#未命名的渐变_12"/><linearGradient id="未命名的渐变_12-21" x1="223.91" x2="353.6" y1="192.26" y2="192.26" xlink:href="#未命名的渐变_12"/><linearGradient id="未命名的渐变_12-22" x1="262.34" x2="290.96" y1="328.22" y2="328.22" xlink:href="#未命名的渐变_12"/><linearGradient id="未命名的渐变_12-23" x1="262.1" x2="290.96" y1="284.6" y2="284.6" xlink:href="#未命名的渐变_12"/><linearGradient id="未命名的渐变_12-24" x1="85.97" x2="247.13" y1="284.48" y2="284.48" xlink:href="#未命名的渐变_12"/><linearGradient id="未命名的渐变_12-25" x1="149.42" x2="207.89" y1="192.26" y2="192.26" xlink:href="#未命名的渐变_12"/><linearGradient id="未命名的渐变_12-26" x1="12.9" x2="71.37" y1="284.48" y2="284.48" xlink:href="#未命名的渐变_12"/><linearGradient id="未命名的渐变_12-27" x1="487.64" x2="524.96" y1="444.79" y2="444.79" xlink:href="#未命名的渐变_12"/><linearGradient id="未命名的渐变_12-28" x1="487.64" x2="524.96" y1="486.72" y2="486.72" xlink:href="#未命名的渐变_12"/><linearGradient id="未命名的渐变_12-29" x1="534.59" x2="571.9" y1="486.72" y2="486.72" xlink:href="#未命名的渐变_12"/><linearGradient id="未命名的渐变_12-30" x1="441.14" x2="478.46" y1="444.79" y2="444.79" xlink:href="#未命名的渐变_12"/><linearGradient id="未命名的渐变_12-31" x1="441.14" x2="478.46" y1="486.72" y2="486.72" xlink:href="#未命名的渐变_12"/><linearGradient id="未命名的渐变_12-32" x1="394.73" x2="432.04" y1="444.79" y2="444.79" xlink:href="#未命名的渐变_12"/><linearGradient id="未命名的渐变_12-33" x1="394.73" x2="432.04" y1="486.72" y2="486.72" xlink:href="#未命名的渐变_12"/><linearGradient id="未命名的渐变_12-34" x1="350.07" x2="387.39" y1="486.72" y2="486.72" xlink:href="#未命名的渐变_12"/><linearGradient id="未命名的渐变_12-35" x1="487.64" x2="524.96" y1="402.86" y2="402.86" xlink:href="#未命名的渐变_12"/></defs><title>未标题-1</title><path d="M635.75,434.78h0a13.05,13.05,0,0,0,0,26.1,44.9,44.9,0,0,1-.05,89.79H292A60.27,60.27,0,0,1,279.65,431.4a13.05,13.05,0,1,0-5.29-25.56A86.38,86.38,0,0,0,292,576.78h343.7a71,71,0,0,0,.08-142Z" class="cls-1"/><path d="M467.38,343.58A13,13,0,0,0,484,335.52a60.19,60.19,0,1,1,108.78,50.1,13.05,13.05,0,1,0,22.49,13.25A86.28,86.28,0,1,0,459.31,327a13.05,13.05,0,0,0,8.07,16.6Z" class="cls-2"/><path d="M306.12,392.48h.19a13,13,0,0,0,13-12.88,44.87,44.87,0,0,1,79.26-28.23,13,13,0,0,0,20-16.81,71,71,0,0,0-125.32,44.7,13.05,13.05,0,0,0,12.87,13.22Z" class="cls-3"/><path d="M211.53,364.65c.94-.6,1.9-1.2,2.86-1.79A19.92,19.92,0,0,0,211.53,364.65Z"/><path d="M292,600.6a110.18,110.18,0,0,1-59.09-203.19c.55-.31,1.07-.64,1.58-1a19.57,19.57,0,0,0,8.46-16.12,19.7,19.7,0,0,0-2.87-10.2A19.62,19.62,0,0,0,216.42,362a18.36,18.36,0,0,0-3.07,1.54l-1.82,1.15a150,150,0,0,0-68.9,125.75c0,82.33,67,149.33,149.34,149.33H410.89a19.57,19.57,0,0,0,19.57-19.56h0a19.57,19.57,0,0,0-19.57-19.57Z" class="cls-4"/><path d="M429.86,274.09l-1.29-3.27A18.53,18.53,0,0,0,429.86,274.09Z"/><path d="M462.08,278.26,461,279.4C461.37,279,461.73,278.66,462.08,278.26Z"/><path d="M687.68,382.32a148.65,148.65,0,0,0,2.5-27.12c0-82.35-67-149.34-149.33-149.34a149.25,149.25,0,0,0-107.57,45.85l-.3.32a19.57,19.57,0,0,0-4.41,18.79l1.29,3.27a19.6,19.6,0,0,0,27.08,8.33l1.58-1a20.12,20.12,0,0,0,2.47-2l1.09-1.14A109.63,109.63,0,0,1,539.68,245c60.89-.63,111.05,48.74,111.35,109.63A109.55,109.55,0,0,1,635.78,411,94.84,94.84,0,0,1,657.3,598.12a19.53,19.53,0,0,0-15.07,19h0a19.59,19.59,0,0,0,24.14,19c59.12-13.91,103.27-67.09,103.27-130.4A134.18,134.18,0,0,0,687.68,382.32Z" class="cls-5"/><path d="M481.22,634.67a14.32,14.32,0,0,1-14.31-14.32v-.23a14.31,14.31,0,1,1,28.62,0v.23A14.31,14.31,0,0,1,481.22,634.67Z" class="cls-6"/><path d="M481.22,728.79a14.31,14.31,0,0,1-14.31-14.31V714a14.31,14.31,0,1,1,28.62,0v.47A14.31,14.31,0,0,1,481.22,728.79Zm0-47.06a14.31,14.31,0,0,1-14.31-14.31V667a14.31,14.31,0,1,1,28.62,0v.47A14.31,14.31,0,0,1,481.22,681.73Z" class="cls-7"/><path d="M481.14,775.62h0a14.23,14.23,0,0,1-14.23-14.23h0A14.51,14.51,0,0,1,481,746.76a14.72,14.72,0,0,1,14.76,14.77A14.51,14.51,0,0,1,481.14,775.62Z" class="cls-8"/><path d="M632.31,775.62h-.49a14.31,14.31,0,1,1,0-28.62h.49a14.31,14.31,0,1,1,0,28.62Zm-50.28,0h-.5a14.31,14.31,0,1,1,0-28.62h.5a14.31,14.31,0,1,1,0,28.62Zm-50.29,0h-.49a14.31,14.31,0,1,1,0-28.62h.49a14.31,14.31,0,1,1,0,28.62Z" class="cls-9"/><path d="M682.34,775.62h-.24a14.31,14.31,0,1,1,0-28.62h.24a14.31,14.31,0,1,1,0,28.62Z" class="cls-10"/><path d="M589.11,629.76a14.31,14.31,0,0,1-14.31-14.31v-.24a14.32,14.32,0,1,1,28.63,0v.24A14.32,14.32,0,0,1,589.11,629.76Z" class="cls-11"/><path d="M589.06,692.94h0a14.25,14.25,0,0,1-14.26-14.25h0a14.51,14.51,0,0,1,14.08-14.61,14.72,14.72,0,0,1,14.78,14.79A14.49,14.49,0,0,1,589.06,692.94Z" class="cls-12"/><path d="M777,692.94h-.47a14.31,14.31,0,1,1,0-28.62H777a14.31,14.31,0,1,1,0,28.62Z" class="cls-13"/><path d="M820.64,692.83h-.47a14.32,14.32,0,0,1,0-28.63h.47a14.32,14.32,0,0,1,0,28.63Z" class="cls-14"/><path d="M730.05,692.94h-.46a14.31,14.31,0,0,1,0-28.62h.46a14.31,14.31,0,1,1,0,28.62Z" class="cls-15"/><path d="M683.15,692.94h-.46a14.31,14.31,0,0,1,0-28.62h.46a14.31,14.31,0,1,1,0,28.62Z" class="cls-16"/><path d="M636.25,692.94h-.46a14.31,14.31,0,1,1,0-28.62h.46a14.31,14.31,0,1,1,0,28.62Z" class="cls-17"/><path d="M738.64,790.54a29.23,29.23,0,1,1,29.23-29.23A29.26,29.26,0,0,1,738.64,790.54Zm0-42.24a13,13,0,1,0,13,13A13,13,0,0,0,738.64,748.3Z" class="cls-18"/><path d="M878.65,707.86a29.23,29.23,0,1,1,29.23-29.23A29.27,29.27,0,0,1,878.65,707.86Zm0-42.24a13,13,0,1,0,13,13A13,13,0,0,0,878.65,665.62Z" class="cls-19"/><path d="M389.31,295.28A14.31,14.31,0,0,1,375,281v-.24a14.32,14.32,0,0,1,28.63,0V281A14.32,14.32,0,0,1,389.31,295.28Z" class="cls-20"/><path d="M389.31,251.15A14.32,14.32,0,0,1,375,236.83v-.43a14.32,14.32,0,1,1,28.63,0v.43A14.32,14.32,0,0,1,389.31,251.15Z" class="cls-21"/><path d="M389.55,206.81A14.72,14.72,0,0,1,374.76,192,14.51,14.51,0,0,1,389.37,178h0a14.26,14.26,0,0,1,14.26,14.26h0A14.51,14.51,0,0,1,389.55,206.81Z" class="cls-22"/><path d="M339.29,206.57h-.5a14.31,14.31,0,1,1,0-28.62h.5a14.31,14.31,0,1,1,0,28.62Zm-50.29,0h-.49a14.31,14.31,0,1,1,0-28.62H289a14.31,14.31,0,1,1,0,28.62Zm-50.28,0h-.5a14.31,14.31,0,0,1,0-28.62h.5a14.31,14.31,0,1,1,0,28.62Z" class="cls-23"/><path d="M276.65,342.66a14.31,14.31,0,0,1-14.31-14.32v-.24a14.31,14.31,0,0,1,28.62,0v.24A14.32,14.32,0,0,1,276.65,342.66Z" class="cls-24"/><path d="M276.88,299a14.72,14.72,0,0,1-14.78-14.78,14.51,14.51,0,0,1,14.6-14.08h0A14.25,14.25,0,0,1,291,284.43h0A14.49,14.49,0,0,1,276.88,299Z" class="cls-25"/><path d="M232.81,298.8h-.43a14.32,14.32,0,1,1,0-28.63h.43a14.32,14.32,0,1,1,0,28.63Zm-44,0h-.43a14.32,14.32,0,1,1,0-28.63h.43a14.32,14.32,0,1,1,0,28.63Zm-44,0h-.44a14.32,14.32,0,0,1,0-28.63h.44a14.32,14.32,0,0,1,0,28.63Zm-44,0h-.44a14.32,14.32,0,0,1,0-28.63h.44a14.32,14.32,0,0,1,0,28.63Z" class="cls-26"/><path d="M178.65,221.49a29.23,29.23,0,1,1,29.24-29.23A29.26,29.26,0,0,1,178.65,221.49Zm0-42.24a13,13,0,1,0,13,13A13,13,0,0,0,178.65,179.25Z" class="cls-27"/><path d="M42.13,313.72a29.24,29.24,0,1,1,29.24-29.24A29.27,29.27,0,0,1,42.13,313.72Zm0-42.25a13,13,0,1,0,13,13A13,13,0,0,0,42.13,271.47Z" class="cls-28"/><rect width="37.32" height="32.57" x="487.64" y="428.51" class="cls-29"/><rect width="37.32" height="32.57" x="487.64" y="470.44" class="cls-30"/><rect width="37.32" height="32.57" x="534.59" y="470.44" class="cls-31"/><rect width="37.32" height="32.57" x="441.14" y="428.51" class="cls-32"/><rect width="37.32" height="32.57" x="441.14" y="470.44" class="cls-33"/><rect width="37.32" height="32.57" x="394.73" y="428.51" class="cls-34"/><rect width="37.32" height="32.57" x="394.73" y="470.44" class="cls-35"/><rect width="37.32" height="32.57" x="350.07" y="470.44" class="cls-36"/><rect width="37.32" height="32.57" x="487.64" y="386.58" class="cls-37"/></svg>